<?xml version="1.0" standalone="no"?>
<!DOCTYPE svg PUBLIC "-//W3C//DTD SVG 20010904//EN"
 "http://www.w3.org/TR/2001/REC-SVG-20010904/DTD/svg10.dtd">
<svg version="1.0" xmlns="http://www.w3.org/2000/svg"
 width="1024.000000pt" height="1024.000000pt" viewBox="0 0 1024.000000 1024.000000"
 preserveAspectRatio="xMidYMid meet">

<g transform="translate(0.000000,1024.000000) scale(0.100000,-0.100000)"
fill="#000000" stroke="none">
<path d="M6454 7897 l-242 -322 144 -3 144 -3 0 -199 c0 -110 2 -200 5 -200 2
0 48 24 102 54 54 29 143 78 198 108 l100 55 3 91 3 91 145 3 145 3 -186 240
c-102 132 -214 277 -248 323 -34 45 -64 82 -67 82 -3 -1 -114 -146 -246 -323z"/>
<path d="M5009 7740 c-361 -23 -771 -173 -1058 -388 -110 -83 -286 -263 -363
-372 -130 -183 -242 -435 -282 -633 -23 -112 -39 -323 -32 -422 26 -345 135
-615 343 -845 231 -257 409 -351 1120 -594 495 -169 747 -277 877 -375 l66
-50 0 584 0 584 -167 55 c-93 30 -249 80 -347 111 -334 106 -467 174 -576 292
-265 290 -184 729 169 912 124 64 198 83 349 88 l132 6 0 528 0 529 -57 -1
c-32 -1 -110 -5 -174 -9z"/>
<path d="M5420 7190 c0 -473 2 -540 15 -540 13 0 15 67 15 540 0 473 -2 540
-15 540 -13 0 -15 -67 -15 -540z"/>
<path d="M5630 7141 l0 -549 53 -18 c74 -24 247 -106 300 -142 l44 -31 7 61
c3 33 6 294 6 579 l0 519 -37 18 c-75 37 -312 112 -354 112 -18 0 -19 -18 -19
-549z"/>
<path d="M6705 7076 l-200 -114 -2 -949 -2 -948 76 -54 c93 -67 200 -153 272
-220 30 -28 56 -49 58 -48 2 2 2 553 1 1225 l-3 1222 -200 -114z"/>
<path d="M5254 6321 c-2 -2 -4 -174 -4 -381 l0 -376 98 -29 c53 -16 150 -48
215 -71 l117 -41 0 452 0 452 -211 -1 c-116 -1 -212 -3 -215 -5z"/>
<path d="M5928 6023 l-38 -4 0 -342 0 -342 93 -34 c50 -19 145 -57 210 -86
l117 -53 -2 432 -3 431 -170 1 c-93 0 -187 -1 -207 -3z"/>
<path d="M5890 4419 c0 -774 -3 -820 -50 -926 -31 -69 -110 -159 -165 -189
l-35 -19 0 -567 c0 -326 4 -568 9 -568 29 0 217 56 304 91 132 52 246 113 382
204 292 195 477 429 622 784 76 188 115 458 95 653 -49 460 -278 801 -705
1044 -100 58 -165 88 -374 178 l-83 35 0 -720z"/>
<path d="M3600 3654 l0 -695 78 42 c42 23 118 65 167 94 50 29 109 62 133 74
l42 21 0 580 0 580 -210 0 -210 0 0 -696z"/>
<path d="M4830 3171 l0 -1069 23 -6 c29 -8 351 -8 371 0 14 6 16 103 16 1000
0 938 -1 995 -17 1001 -10 3 -99 37 -197 75 -99 37 -183 68 -188 68 -4 0 -8
-481 -8 -1069z"/>
<path d="M4210 3680 c0 -209 4 -380 8 -380 5 0 65 33 134 73 68 39 159 90 201
112 l77 40 0 268 0 267 -210 0 -210 0 0 -380z"/>
<path d="M4475 3237 c-83 -45 -176 -98 -208 -117 l-57 -35 2 -450 3 -450 160
-31 c88 -17 181 -34 208 -37 l47 -7 0 605 c0 333 -1 605 -3 605 -1 0 -70 -37
-152 -83z"/>
<path d="M5420 2680 c0 -500 2 -570 15 -570 13 0 15 70 15 570 0 500 -2 570
-15 570 -13 0 -15 -70 -15 -570z"/>
<path d="M3935 2943 c-44 -25 -137 -80 -207 -121 l-128 -75 0 -199 c0 -109 1
-198 3 -198 2 0 89 -25 192 -55 104 -30 197 -55 207 -55 17 0 18 22 18 375 0
206 -1 375 -2 375 -2 0 -39 -21 -83 -47z"/>
</g>
</svg>
